<svg id="Layer_1" enable-background="new 0 0 128 128" viewBox="0 0 128 128" xmlns="http://www.w3.org/2000/svg" xmlns:xlink="http://www.w3.org/1999/xlink"><linearGradient id="lg1"><stop offset="0" stop-color="#85b45e"/><stop offset=".56" stop-color="#74a44a"/><stop offset="1" stop-color="#2b5227"/></linearGradient><linearGradient id="SVGID_1_" gradientUnits="userSpaceOnUse" x1="86.256" x2="86.256" xlink:href="#lg1" y1="-76.122" y2="204.109"/><linearGradient id="lg2"><stop offset="0" stop-color="#54b948"/><stop offset="1" stop-color="#579642"/></linearGradient><linearGradient id="SVGID_2_" gradientUnits="userSpaceOnUse" x1="120.676" x2=".441" xlink:href="#lg2" y1="69.712" y2=".294"/><linearGradient id="SVGID_3_" gradientUnits="userSpaceOnUse" x1="68.965" x2="158.129" xlink:href="#lg2" y1="1.224" y2="52.703"/><linearGradient id="SVGID_4_" gradientUnits="userSpaceOnUse" x1="89.592" x2="98.693" xlink:href="#lg1" y1="38.709" y2="125.297"/><g clip-rule="evenodd" fill-rule="evenodd"><path d="m2.5 102.9 62-4.5 29 1.6 28.4 15.8c.3.2-.2.4-1.1.5l-73.4 11.6c-.9.1-2 .1-2.3-.1l-43.7-24.4c-.4-.2.1-.4 1.1-.5z" opacity=".2"/><path d="m47.5 0 57.8 12 21.5 21.4v80.9c0 .9-.7 1.5-1.7 1.6l-77.6 12.1c-.9.1-1.7-.7-1.7-1.6v-124.7c0-.9.7-1.7 1.7-1.7z" fill="url(#SVGID_1_)"/><path d="m48.2.1 1 .2.3.1v127.3l-1.3.2zm3.4.7.6.2v126.3l-1.3.2v-126.8zm3.2 126-1.3.2v-125.8l1.3.3z" opacity=".2"/><path d="m45.9 57.7-.1-50.6 48.1 9.3c2.5.5 4.6 2.1 4.6 4.6v19.7c0 2.5-2 4.3-4.5 4.9z" opacity=".4"/><path d="m104.1 12h1.1l21.5 21.4v1.1h-19c-2 0-3.7-1.6-3.7-3.7v-18.8z" opacity=".4"/><path d="m31.5 4.4 63.5 12c1.9.4 3.5 1.6 3.5 3.5v20.7c0 1.9-1.6 3.2-3.5 3.5l-63.5 12.2c-1.9.4-3.5-1.6-3.5-3.5v-44.9c-.1-1.9 1.6-3.9 3.5-3.5z" fill="url(#SVGID_2_)"/><path d="m126.7 33.4h-19c-1.4 0-2.5-1.1-2.5-2.5v-18.9z" fill="url(#SVGID_3_)"/></g><g fill="#fff"><path d="m55.7 36c-.3 2-1 3.5-2.1 4.6s-2.5 1.6-4.2 1.6c-2.1 0-3.7-.9-4.8-2.7-1-1.8-1.6-4.6-1.6-8.3 0-3.9.5-6.7 1.6-8.5s2.8-2.7 5.1-2.7c1.6 0 2.9.5 3.9 1.4s1.6 2.3 2 4.1l-3.8 1.3c-.1-1.1-.3-2-.7-2.5-.3-.5-.8-.8-1.5-.8-.8 0-1.4.6-1.8 1.7s-.5 3.2-.5 6.1.2 4.8.5 5.9.9 1.6 1.7 1.6c.6 0 1.1-.3 1.5-1s.6-1.7.8-3z"/><path d="m58.1 41.7v-21.4h4.2c2.9 0 4.9.8 6.2 2.4s1.9 4.2 1.9 7.8c0 3.9-.6 6.7-1.9 8.5-1.2 1.8-3.2 2.7-5.9 2.7zm4.2-3.3h.1c1.4 0 2.3-.5 2.9-1.6s.8-3 .8-5.7c0-2.8-.3-4.7-.8-5.8-.6-1.1-1.5-1.6-2.9-1.6h-.2v14.7z"/><path d="m73.2 41.7v-21.4h5.2c2.3 0 4 .5 5.1 1.5 1.2 1 1.7 2.5 1.7 4.5 0 1.4-.3 2.5-.9 3.5-.6.9-1.5 1.6-2.6 2l3.9 10h-4.3l-3.6-10.1h-.4v10.1h-4.1zm4.1-12.2h.2.2c1.1 0 1.9-.3 2.5-.8s.9-1.3.9-2.3-.3-1.7-.9-2.2-1.4-.7-2.5-.7h-.4z"/></g><g><path clip-rule="evenodd" d="m87 103.1c-.5-.4-.9-.7-1.3-1.2 0 0-.1-.1-.1-.1l-1.3-1.1.1-.1-.2-.2-.1-.2c-.2-.2-.6-.6-.8-.8-.3-.4-.6-.7-.9-1.1-.6-.7-1.2-1.5-1.8-2.3-3.7-4.9-7-9.8-9.1-15.7-2.7-7.7-2.7-14.8 2.7-21.4 7.6-9.4 30.9-13.5 38.9-2.2 2 2.8 3 5.8 3 9.2 0 6.7-3.2 14.9-6.5 20.6-.8 1.4-1.6 2.8-2.4 4.2-.5.8-1 1.6-1.6 2.4-.8 1.1-1.5 2.2-2.3 3.4-1 1.3-3.9 5.6-5.3 6.2l-1.1.5 2.2-.2v2c0 .4-.1.9-.2 1.3-.1.6-.2 1.2-.4 1.8-.1.6-.3 1.2-.4 1.8-.1.4-.2.9-.3 1.2l-.4 1-8.6 1-.6-1.1c-.3-.6-.7-2.3-.8-3.1-.1-.5-.2-1.1-.4-1.7-.1-.4-.2-.8-.2-1.2l-.1-1.7 1.3-.1-.1-.1-.5.1z" fill="#fff" fill-rule="evenodd"/><g><path clip-rule="evenodd" d="m89.4 111.1 6.3-.7c.1-.3 1.2-5 1.2-5.4l-8.6 1c0 .5 1 4.8 1.1 5.1zm7.6-10c1.2-.6 7.1-9.1 8.5-11.3.8-1.4 1.6-2.8 2.4-4.2 2.8-4.9 6.3-13 6.3-19.7 0-3.4-1.2-6-2.6-8.1-.9-1.3-4.2-4.4-5.9-4.5.1.1 0 0 .1.1l.4.3c3.3 1.9 5.4 5.5 6.2 9.4.4 2.1.1 5.8-.3 8-1.2 6.5-4.5 13.3-7.8 19-.9 1.5-2.5 4.1-3.5 5.6-.6.9-1.2 1.9-1.8 2.7-.5.4-1.9 2.3-2 2.7zm-10.2-.6 1.7 1.5-2.3-2c-.2-.2-.5-.5-.6-.7-.2-.4-.7-.8-1-1.1-.3-.4-.6-.7-.9-1-.6-.7-1.2-1.5-1.8-2.2-3.5-4.6-6.7-9.4-8.8-15.2-2.4-6.8-2.7-13.4 2.4-19.7.7-.8 3.4-3.7 4.7-4.1-10.1 8.5-7.8 20.1-3 29.5 2.4 4.7 4.5 7.7 7.5 11.7.6.8 1.1 1.4 1.7 2.2.1.1 1 1.1 1.1 1.3.2.3.4.4.6.7.4.4.5.7.5.7zm1.8 1.6v-.2l-.2-.2zm2 .4c0-.2-1.2-2.3-1.4-2.7-2.7-4.9-4.8-9.1-6.6-14.6-.7-2.2-1.3-4.4-1.8-6.8-1.1-4.9-1.2-10.8.4-15.7.8-2.4 1.9-4.3 3.1-6 1.2-1.6 3.2-3.3 4.9-4.5-1.8.1-5.6 2.5-7 3.7-1.9 1.6-3.4 3.5-4.7 5.9-5.5 10.4.2 21.7 4.8 30.1 1.8 3.3 3.6 5.7 6 8.3 1 1.1 1.2 1.4 2.3 2.3zm4.2-.6s.1 0 0 0l.4-.8c.9-1.8 1.8-3.6 2.6-5.4 4.7-10 10.2-26 6.5-35.8-1.6-4.3-4.3-7-8.1-8.5 1.9-.5 5.9 1.4 7.1 2.1 1.8 1.1 3.4 2.7 4.6 4.8 2.8 4.7 2.8 10.2 1.2 16.4-1.8 6.7-4.5 12.3-7.8 18.1-.6 1.1-1.3 2.2-2 3.2-.8 1.1-3.2 4.8-4.4 5.8zm-3 1c-.3-.4-1.6-5-1.8-5.9-3-11.1-7.2-29.2-1.7-40.7.7-1.5 2.2-3.9 4.4-4 3.8-.3 5.7 6 6.2 9 1.6 8-.3 20.4-2.1 28.7-.7 3-2.4 10.2-3.4 12.9zm-5-2.4c.1.1.2.2.2.3.4.4 1.1 1 1.5 1.3zm1.8 1.6.1.1s-.1 0-.1-.1z" fill="url(#SVGID_4_)" fill-rule="evenodd"/></g></g></svg>